<?xml version="1.0" encoding="UTF-8" standalone="no"?>
<!-- Created with Inkscape (http://www.inkscape.org/) -->

<svg
   xmlns:dc="http://purl.org/dc/elements/1.1/"
   xmlns:cc="http://creativecommons.org/ns#"
   xmlns:rdf="http://www.w3.org/1999/02/22-rdf-syntax-ns#"
   xmlns:svg="http://www.w3.org/2000/svg"
   xmlns="http://www.w3.org/2000/svg"
   xmlns:sodipodi="http://sodipodi.sourceforge.net/DTD/sodipodi-0.dtd"
   xmlns:inkscape="http://www.inkscape.org/namespaces/inkscape"
   version="1.1"
   id="svg2"
   inkscape:version="0.92.3 (2405546, 2018-03-11)"
   sodipodi:docname="5_Boosted_1.svg"
   width="425"
   height="493">
  <metadata
     id="metadata8">
    <rdf:RDF>
      <cc:Work
         rdf:about="">
        <dc:format>image/svg+xml</dc:format>
        <dc:type
           rdf:resource="http://purl.org/dc/dcmitype/StillImage" />
        <dc:title></dc:title>
      </cc:Work>
    </rdf:RDF>
  </metadata>
  <defs
     id="defs6">
    <clipPath
       clipPathUnits="userSpaceOnUse"
       id="clipPath5395">
      <rect
         style="opacity:0.57700004;fill:#5224ff;fill-opacity:1;fill-rule:evenodd;stroke:#ffffff;stroke-width:0;stroke-linecap:round;stroke-linejoin:round;stroke-miterlimit:4;stroke-dasharray:none;stroke-dashoffset:0;stroke-opacity:1"
         id="rect5397"
         width="45"
         height="90"
         x="-205.08475"
         y="405.89896"
         transform="rotate(-90)" />
    </clipPath>
  </defs>
  <sodipodi:namedview
     pagecolor="#000000"
     bordercolor="#666666"
     borderopacity="1"
     objecttolerance="10"
     gridtolerance="10"
     guidetolerance="10"
     inkscape:pageopacity="0.6745098"
     inkscape:pageshadow="2"
     inkscape:window-width="1920"
     inkscape:window-height="1001"
     id="namedview4"
     showgrid="true"
     inkscape:pagecheckerboard="true"
     inkscape:zoom="0.834386"
     inkscape:cx="15.623113"
     inkscape:cy="75.107911"
     inkscape:window-x="-9"
     inkscape:window-y="-9"
     inkscape:window-maximized="1"
     inkscape:current-layer="svg2">
    <inkscape:grid
       type="xygrid"
       id="grid5385" />
  </sodipodi:namedview>
  <g
     id="XMLID_5_"
     transform="matrix(0,0.92436531,-0.92436608,0,545.05314,375.89467)"
     style="stroke-width:1.08182335">
	
	
	
	
	
	
	
	
	
	
	
	
	
	
	
	
	
	
	
	
	
	
	
</g>
  <g
     id="g5544"
     transform="matrix(0,0.92436531,-0.92436608,0,426.15979,73.418116)"
     style="stroke-width:1.08182335">
    <g
       style="stroke-width:0.54691619"
       transform="matrix(1.9780425,0,0,1.9780425,-438.77709,-321.3201)"
       id="g5474">
      <polygon
         style="fill:#dadcdb;stroke-width:0.54691619"
         id="XMLID_133_"
         points="403.6,267.9 376.2,279.2 372.9,280.6 372.9,217 393.8,217 451.3,263.3 " />
      <polygon
         style="fill:#f0f0f0;fill-opacity:1;stroke-width:0.54691619"
         id="XMLID_135_"
         points="260.6,280.6 257.3,279.2 229.4,267.7 182.2,263.3 239.7,217 260.6,217 " />
      <polygon
         style="fill:#c9c9c9;stroke-width:0.54691619"
         id="XMLID_127_"
         points="372.9,280.6 372.9,217 380.6,217 403.6,267.9 376.2,279.2 " />
      <polygon
         style="fill:#c9c9c9;stroke-width:0.54691619"
         id="XMLID_129_"
         points="257.3,279.2 229.4,267.7 252.2,217 260.6,217 260.6,280.6 " />
      <rect
         style="fill:#c9c9c9;stroke-width:0.54691619"
         id="XMLID_168_"
         x="372.29999"
         y="285.79999"
         width="11.3"
         height="10.5" />
      <polygon
         style="fill:#f0f0f0;fill-opacity:1;stroke-width:0.54691619"
         id="XMLID_136_"
         points="288.8,314.9 288.8,183.5 297,177.6 316.4,163.5 335.9,177.6 344,183.5 344,314.9 336,325.8 296.9,325.8 " />
      <polygon
         style="fill:#dadcdb;stroke-width:0.54691619"
         id="XMLID_128_"
         points="344,314.9 336,325.8 316.4,325.8 316.4,163.5 335.9,177.6 344,183.5 " />
      <polygon
         style="fill:#dadcdb;stroke-width:0.54691619"
         id="XMLID_160_"
         points="372.9,217 401.8,281 348.6,302.9 344,304.8 344,207.8 " />
      <polygon
         style="fill:#c9c9c9;stroke-width:0.54691619"
         id="XMLID_158_"
         points="348.6,302.9 344,304.8 344,216.1 348.6,217 " />
      <polygon
         style="fill:#c9c9c9;stroke-width:0.54691619"
         id="XMLID_130_"
         points="346.2,296 389.9,277.2 372.5,236 373.3,235.6 391.1,277.7 346.5,296.9 " />
      <rect
         style="fill:#c9c9c9;stroke-width:0.54691619"
         id="XMLID_142_"
         x="249.3"
         y="285.79999"
         width="11.3"
         height="10.5" />
      <polygon
         style="fill:#f0f0f0;fill-opacity:1;stroke-width:0.54691619"
         id="XMLID_134_"
         points="260,217 231.1,281 284.2,302.9 288.8,304.8 288.8,207.8 " />
      <polygon
         style="fill:#c9c9c9;stroke-width:0.54691619"
         id="XMLID_132_"
         points="284.2,302.9 288.8,304.8 288.8,215.1 284.2,217 " />
      <polygon
         style="fill:#c9c9c9;stroke-width:0.54691619"
         id="XMLID_111_"
         points="241.8,277.7 259.5,235.6 260.4,236 243,277.2 286.7,296 286.3,296.9 " />
      <g
         style="stroke-width:0.54691619"
         id="XMLID_60_">
		
	</g>
      <rect
         style="fill:#c3c3c3;fill-opacity:1;stroke-width:0.54691619"
         id="XMLID_58_"
         x="297.79999"
         y="325.79999"
         width="37.099998"
         height="10.6" />
      <rect
         height="10.6"
         width="18.523464"
         y="325.79999"
         x="316.37653"
         id="rect5403"
         style="fill:#aeaeae;fill-opacity:1;stroke-width:0.54691619" />
      <g
         id="g5413"
         transform="matrix(1,0,0,2.1163046,0,-344.49162)"
         style="stroke-width:0.37595135">
        <rect
           height="3"
           width="55.182583"
           y="308.60001"
           x="288.79953"
           id="XMLID_62_"
           style="fill:#24c3ff;stroke-width:0.37595135" />
        <rect
           style="fill:#00a3e1;fill-opacity:1;stroke-width:0.37595135"
           id="rect5409"
           x="316.40585"
           y="308.60001"
           width="27.576263"
           height="3" />
      </g>
      <path
         sodipodi:type="star"
         style="opacity:1;fill:#24c3ff;fill-opacity:1;fill-rule:evenodd;stroke:#ffffff;stroke-width:0;stroke-linecap:round;stroke-linejoin:round;stroke-miterlimit:4;stroke-dasharray:none;stroke-dashoffset:0;stroke-opacity:1"
         id="path5415"
         sodipodi:sides="3"
         sodipodi:cx="88.982117"
         sodipodi:cy="197.94891"
         sodipodi:r1="18.027756"
         sodipodi:r2="9.0138779"
         sodipodi:arg1="0.5880026"
         sodipodi:arg2="1.6352002"
         inkscape:flatsided="true"
         inkscape:rounded="0"
         inkscape:randomized="0"
         d="M 103.98212,207.94891 72.821863,205.93929 90.142371,179.95853 Z"
         inkscape:transform-center-x="5.0000011"
         inkscape:transform-center-y="-3.5683603"
         transform="matrix(1,0,-0.49135975,0.89316376,217.17773,77.216487)" />
      <path
         transform="matrix(-1,0,0.49135975,0.89316376,415.78651,77.216487)"
         inkscape:transform-center-y="-3.5683603"
         inkscape:transform-center-x="-4.9999976"
         d="M 103.98212,207.94891 72.821863,205.93929 90.142371,179.95853 Z"
         inkscape:randomized="0"
         inkscape:rounded="0"
         inkscape:flatsided="true"
         sodipodi:arg2="1.6352002"
         sodipodi:arg1="0.5880026"
         sodipodi:r2="9.0138779"
         sodipodi:r1="18.027756"
         sodipodi:cy="197.94891"
         sodipodi:cx="88.982117"
         sodipodi:sides="3"
         id="path5417"
         style="opacity:1;fill:#24c3ff;fill-opacity:1;fill-rule:evenodd;stroke:#ffffff;stroke-width:0;stroke-linecap:round;stroke-linejoin:round;stroke-miterlimit:4;stroke-dasharray:none;stroke-dashoffset:0;stroke-opacity:1"
         sodipodi:type="star" />
      <g
         style="stroke-width:0.54691619"
         id="g5423"
         transform="translate(0,-0.93631725)">
        <path
           d="m 251.7,299 c 0,20.7 1.5,37.4 3.2,37.4 1.7,0 3.2,-16.8 3.2,-37.4 z"
           id="XMLID_141_"
           inkscape:connector-curvature="0"
           style="fill:#0087ba;stroke-width:0.54691619;fill-opacity:1" />
        <path
           style="fill:#5ad2ff;fill-opacity:1;stroke-width:0.54691619"
           inkscape:connector-curvature="0"
           id="path5419"
           d="m 253.08804,298.98864 c 0,10.79398 0.78218,19.50216 1.66864,19.50216 0.88646,0 1.66863,-8.76033 1.66863,-19.50216 z" />
      </g>
      <g
         style="stroke-width:0.54691619"
         transform="translate(122.89408,-1.03972)"
         id="g5429">
        <path
           style="fill:#0087ba;stroke-width:0.54691619;fill-opacity:1"
           inkscape:connector-curvature="0"
           id="path5425"
           d="m 251.7,299 c 0,20.7 1.5,37.4 3.2,37.4 1.7,0 3.2,-16.8 3.2,-37.4 z" />
        <path
           d="m 253.08804,298.98864 c 0,10.79398 0.78218,19.50216 1.66864,19.50216 0.88646,0 1.66863,-8.76033 1.66863,-19.50216 z"
           id="path5427"
           inkscape:connector-curvature="0"
           style="fill:#5ad2ff;fill-opacity:1;stroke-width:0.54691619" />
      </g>
      <g
         style="stroke-width:0.54691619"
         id="g5441"
         transform="translate(0,-1.4830508)">
        <path
           d="m 333.8,339.8 c 0,31.6 -7.8,57.2 -17.4,57.2 -9.6,0 -17.4,-25.6 -17.4,-57.2 z"
           id="XMLID_170_"
           inkscape:connector-curvature="0"
           style="fill:#0087ba;stroke-width:0.54691619;fill-opacity:1" />
        <path
           style="fill:#5ad2ff;fill-opacity:1;stroke-width:0.54691619"
           inkscape:connector-curvature="0"
           id="path5431"
           d="m 325.66205,339.80388 c 0,16.77646 -4.14102,30.36752 -9.23767,30.36752 -5.09664,0 -9.23766,-13.59106 -9.23766,-30.36752 z" />
      </g>
    </g>
    <g
       style="stroke-width:0.9601754"
       transform="matrix(1.1266935,0,0,1.1266935,-27.769183,-72.776098)"
       id="g5401">
      <g
         style="stroke-width:0.9601754"
         transform="translate(-167.07998,6.9266074)"
         id="g5407">
        <path
           sodipodi:type="star"
           style="opacity:1;fill:#24c3ff;fill-opacity:1;fill-rule:evenodd;stroke:#ffffff;stroke-width:0;stroke-linecap:round;stroke-linejoin:round;stroke-miterlimit:4;stroke-dasharray:none;stroke-dashoffset:0;stroke-opacity:1"
           id="path5393"
           sodipodi:sides="6"
           sodipodi:cx="449.15253"
           sodipodi:cy="205.08475"
           sodipodi:r1="43.253559"
           sodipodi:r2="37.458683"
           sodipodi:arg1="1.0471976"
           sodipodi:arg2="1.5707963"
           inkscape:flatsided="true"
           inkscape:rounded="0"
           inkscape:randomized="0"
           d="m 470.7793,242.54343 -43.25355,0 -21.62678,-37.45868 21.62678,-37.45868 43.25356,0 21.62678,37.45868 z"
           transform="rotate(90,435.07591,127.55016)" />
        <path
           clip-path="url(#clipPath5395)"
           transform="rotate(90,435.07591,127.55016)"
           d="m 470.7793,242.54343 -43.25355,0 -21.62678,-37.45868 21.62678,-37.45868 43.25356,0 21.62678,37.45868 z"
           inkscape:randomized="0"
           inkscape:rounded="0"
           inkscape:flatsided="true"
           sodipodi:arg2="1.5707963"
           sodipodi:arg1="1.0471976"
           sodipodi:r2="37.458683"
           sodipodi:r1="43.253559"
           sodipodi:cy="205.08475"
           sodipodi:cx="449.15253"
           sodipodi:sides="6"
           id="path5373"
           style="opacity:1;fill:#00a3e1;fill-opacity:1;fill-rule:evenodd;stroke:#ffffff;stroke-width:0;stroke-linecap:round;stroke-linejoin:round;stroke-miterlimit:4;stroke-dasharray:none;stroke-dashoffset:0;stroke-opacity:1"
           sodipodi:type="star" />
      </g>
    </g>
  </g>
</svg>
